<svg width="20" height="20" viewBox="0 0 20 20" fill="none" xmlns="http://www.w3.org/2000/svg">
<path d="M6.8501 7.63333C6.8501 6.04091 8.14101 4.75 9.73343 4.75H10.4C11.9189 4.75 13.1501 5.98124 13.1501 7.50006C13.1501 8.36559 12.7426 9.18062 12.0502 9.69999L11.1361 10.3857C10.8933 10.5678 10.7505 10.8536 10.7505 11.1571V11.8H9.25045V11.1571C9.25045 10.3815 9.61559 9.65114 10.236 9.18575L11.1501 8.50005C11.4649 8.26397 11.6501 7.89349 11.6501 7.50006C11.6501 6.80967 11.0904 6.25 10.4 6.25H9.73343C8.96944 6.25 8.3501 6.86934 8.3501 7.63333V7.96913H6.8501V7.63333Z" fill="#99A5B2"/>
<path d="M10 15.3C10.5523 15.3 11 14.8523 11 14.3C11 13.7478 10.5523 13.3 10 13.3C9.44771 13.3 9 13.7478 9 14.3C9 14.8523 9.44771 15.3 10 15.3Z" fill="#99A5B2"/>
<path fill-rule="evenodd" clip-rule="evenodd" d="M1 10C1 5.02944 5.02944 1 10 1C14.9706 1 19 5.02944 19 10C19 14.9706 14.9706 19 10 19C5.02944 19 1 14.9706 1 10ZM10 2.5C5.85786 2.5 2.5 5.85786 2.5 10C2.5 14.1421 5.85786 17.5 10 17.5C14.1421 17.5 17.5 14.1421 17.5 10C17.5 5.85786 14.1421 2.5 10 2.5Z" fill="#99A5B2"/>
</svg>
