<svg width="25" height="24" viewBox="0 0 25 24" fill="none" xmlns="http://www.w3.org/2000/svg">
<path fill-rule="evenodd" clip-rule="evenodd" d="M2.6665 6C2.6665 4.89543 3.56193 4 4.6665 4H13.6665C14.7711 4 15.6665 4.89543 15.6665 6H18.008C19.1618 6 20.2133 6.66166 20.7126 7.70181L22.568 11.5673C22.6329 11.7023 22.6665 11.8502 22.6665 12V17C22.6665 17.7828 22.2168 18.4605 21.5617 18.789C21.2153 20.0631 20.0503 21 18.6665 21C17.3603 21 16.249 20.1652 15.8372 19H9.4958C9.08396 20.1652 7.97272 21 6.6665 21C5.28269 21 4.11772 20.0631 3.77133 18.789C3.1162 18.4605 2.6665 17.7828 2.6665 17V6ZM20.6665 15.7639V12.2276L18.9096 8.56727C18.7431 8.22055 18.3926 8 18.008 8H15.6665V11.1529L17.8309 11.5136C18.3757 11.6044 18.7437 12.1196 18.6529 12.6644C18.5621 13.2092 18.0469 13.5772 17.5021 13.4864L15.3377 13.1257C14.3733 12.9649 13.6665 12.1306 13.6665 11.1529V6H4.6665V15.7639C5.19726 15.2889 5.89815 15 6.6665 15C7.97272 15 9.08396 15.8348 9.4958 17H15.8372C16.249 15.8348 17.3603 15 18.6665 15C19.4349 15 20.1357 15.2889 20.6665 15.7639ZM6.6665 19C6.11422 19 5.6665 18.5523 5.6665 18C5.6665 17.4477 6.11422 17 6.6665 17C7.21879 17 7.6665 17.4477 7.6665 18C7.6665 18.5523 7.21879 19 6.6665 19ZM17.6665 18C17.6665 18.5523 18.1142 19 18.6665 19C19.2188 19 19.6665 18.5523 19.6665 18C19.6665 17.4477 19.2188 17 18.6665 17C18.1142 17 17.6665 17.4477 17.6665 18Z" fill="white"/>
</svg>
