<svg width="20" height="20" viewBox="0 0 20 20" fill="none" xmlns="http://www.w3.org/2000/svg">
<path fill-rule="evenodd" clip-rule="evenodd" d="M10.0003 6.85C8.26057 6.85 6.85027 8.2603 6.85027 10C6.85027 11.7397 8.26057 13.15 10.0003 13.15C11.74 13.15 13.1503 11.7397 13.1503 10C13.1503 8.2603 11.74 6.85 10.0003 6.85ZM8.35027 10C8.35027 9.08873 9.089 8.35 10.0003 8.35C10.9115 8.35 11.6503 9.08873 11.6503 10C11.6503 10.9113 10.9115 11.65 10.0003 11.65C9.089 11.65 8.35027 10.9113 8.35027 10Z" fill="#99A5B2"/>
<path fill-rule="evenodd" clip-rule="evenodd" d="M9.42487 1C8.58684 1 7.86644 1.59411 7.70688 2.41682L7.53677 3.294C7.52157 3.37234 7.45298 3.47614 7.30614 3.53742C7.0892 3.62794 6.87784 3.72905 6.67269 3.84007C6.53305 3.91565 6.4093 3.90373 6.33878 3.8662L5.54762 3.4451C4.80785 3.05135 3.89277 3.23732 3.36538 3.8886L2.64128 4.78279C2.11388 5.43407 2.12223 6.36781 2.66118 7.00955L3.23779 7.69613C3.28909 7.75721 3.32659 7.87578 3.28186 8.02844C3.2111 8.26991 3.15301 8.51674 3.10834 8.76815C3.08057 8.92446 2.99423 9.01385 2.92099 9.04566L2.09798 9.4031C1.32932 9.73694 0.905213 10.5689 1.0866 11.387L1.33563 12.5104C1.51702 13.3285 2.25297 13.9033 3.09071 13.881L3.98833 13.8571C4.06809 13.855 4.1839 13.8994 4.2751 14.0288C4.42142 14.2363 4.57871 14.4356 4.74613 14.6256C4.85063 14.7442 4.86683 14.8671 4.84613 14.9443L4.61335 15.8115C4.39611 16.6209 4.78317 17.4707 5.53638 17.8381L6.57055 18.3424C7.32377 18.7098 8.2317 18.4916 8.73576 17.8221L9.27524 17.1056C9.32328 17.0418 9.43009 16.9789 9.58787 16.988C9.72437 16.996 9.86185 17 10.0002 17C10.1174 17 10.234 16.9971 10.3499 16.9914C10.5076 16.9836 10.6138 17.0474 10.6613 17.1117L11.1944 17.8327C11.6926 18.5066 12.5986 18.7327 13.355 18.3719L14.3935 17.8765C15.1499 17.5157 15.5443 16.6694 15.3342 15.8581L15.1094 14.9906C15.0894 14.9133 15.1067 14.7905 15.2123 14.6728C15.3819 14.4836 15.5415 14.2852 15.69 14.0783C15.7823 13.9497 15.8985 13.9063 15.9783 13.9091L16.873 13.9407C17.7105 13.9703 18.4514 13.402 18.64 12.5855L18.8988 11.4644C19.0873 10.6478 18.6705 9.81223 17.9047 9.4717L17.0874 9.10823C17.0145 9.07578 16.9289 8.98564 16.9026 8.82914C16.86 8.5764 16.8038 8.32819 16.7349 8.0853C16.6914 7.93222 16.73 7.81394 16.7818 7.7533L17.3624 7.0741C17.9069 6.43709 17.9234 5.50345 17.4017 4.8476L16.6855 3.94712C16.1638 3.29127 15.2504 3.09732 14.5072 3.4846L13.714 3.89793C13.6432 3.93484 13.5194 3.94567 13.3804 3.86893C13.1588 3.74651 12.9298 3.63573 12.6942 3.53742C12.5474 3.47615 12.4788 3.37235 12.4636 3.29401L12.2935 2.41681C12.1339 1.59411 11.4135 1 10.5755 1H9.42487ZM9.17945 2.7024C9.20224 2.58487 9.30516 2.5 9.42487 2.5H10.5755C10.6952 2.5 10.7981 2.58487 10.8209 2.7024L10.991 3.5796C11.1164 4.2262 11.5819 4.69862 12.1166 4.92173C12.3014 4.99885 12.4811 5.08579 12.6552 5.18193C13.1629 5.4624 13.8229 5.53265 14.4072 5.22815L15.2004 4.81482C15.3065 4.7595 15.437 4.7872 15.5116 4.8809L16.2278 5.78138C16.3024 5.87507 16.3 6.00844 16.2222 6.09945L15.6416 6.77864C15.2137 7.27928 15.1337 7.93758 15.2919 8.49484C15.3459 8.6853 15.39 8.88002 15.4234 9.07842C15.5198 9.65057 15.8757 10.211 16.4779 10.4788L17.2952 10.8423C17.4046 10.8909 17.4642 11.0103 17.4372 11.1269L17.1784 12.2481C17.1515 12.3647 17.0456 12.4459 16.926 12.4417L16.0313 12.4101C15.374 12.3868 14.8093 12.733 14.4715 13.2035C14.3547 13.3662 14.2292 13.5223 14.0957 13.6711C13.7085 14.1028 13.4923 14.7297 13.6574 15.3668L13.8821 16.2343C13.9121 16.3502 13.8558 16.4711 13.7477 16.5226L12.7092 17.018C12.6011 17.0695 12.4717 17.0372 12.4005 16.941L11.8675 16.2199C11.4767 15.6914 10.8546 15.4647 10.2761 15.4932C10.1847 15.4977 10.0928 15.5 10.0002 15.5C9.89093 15.5 9.78251 15.4968 9.67499 15.4906C9.09668 15.4569 8.47235 15.6781 8.0769 16.2034L7.53742 16.9199C7.46541 17.0156 7.33571 17.0467 7.22811 16.9943L6.19394 16.4899C6.08634 16.4374 6.03104 16.316 6.06208 16.2004L6.29485 15.3331C6.46542 14.6976 6.25489 14.069 5.87165 13.634C5.73991 13.4845 5.61619 13.3278 5.50115 13.1646C5.1675 12.6912 4.60582 12.3401 3.94842 12.3576L3.0508 12.3815C2.93113 12.3847 2.82599 12.3026 2.80008 12.1857L2.55104 11.0624C2.52513 10.9455 2.58571 10.8266 2.69552 10.7789L3.51853 10.4215C4.12301 10.159 4.48373 9.60172 4.58521 9.03054C4.62027 8.83321 4.66585 8.63959 4.72133 8.45025C4.88419 7.89448 4.80991 7.23569 4.38645 6.73146L3.80984 6.04488C3.73285 5.9532 3.73165 5.81981 3.807 5.72677L4.5311 4.83258C4.60644 4.73954 4.73717 4.71297 4.84285 4.76922L5.63401 5.19032C6.21576 5.49996 6.87644 5.43539 7.38664 5.15927C7.54773 5.07209 7.71362 4.99274 7.88381 4.92172C8.41845 4.69861 8.88393 4.22619 9.00933 3.57958L9.17945 2.7024Z" fill="#99A5B2"/>
</svg>
