<svg width="40" height="40" viewBox="0 0 40 40" fill="none" xmlns="http://www.w3.org/2000/svg">
<rect width="40" height="40" fill="#1287FD"/>
<path d="M13.9752 15.0293C14.2894 14.0868 14.8952 13.3463 15.7928 12.8078C16.7128 12.2693 18.205 12 20.2694 12C23.2762 12 25.3742 12.3815 26.5635 13.1444C27.7752 13.8849 28.3811 15.6576 28.3811 18.4624L28.3474 19.2029H26.025C26.025 17.2058 25.7108 15.8595 25.0825 15.1639C24.4767 14.4458 23.164 14.0868 21.1445 14.0868H20.3367C18.0479 14.0868 16.4099 14.4122 15.4225 15.0629C14.4577 15.6912 13.9752 17.0712 13.9752 19.2029V28H11.6191V12.2356H13.9752V15.0293Z" fill="white"/>
</svg>
